<?xml version="1.0" encoding="iso-8859-1"?>
<!-- Uploaded to: SVG Repo, www.svgrepo.com, Generator: SVG Repo Mixer Tools -->
<svg height="800px" width="800px" version="1.1" id="Layer_1" xmlns="http://www.w3.org/2000/svg" xmlns:xlink="http://www.w3.org/1999/xlink" 
	 viewBox="0 0 512 512" xml:space="preserve">
<polygon style="fill:#972041;" points="287.21,8.17 305.021,40.851 276.807,70.438 276.807,8.17 "/>
<polygon style="fill:#E43349;" points="276.807,8.17 291.513,48.651 255.989,69.174 206.979,40.851 224.779,8.17 "/>
<polygon style="fill:#FF6761;" points="325.36,40.851 364.936,113.479 304.553,167.533 304.553,40.851 "/>
<polygon style="fill:#FF9387;" points="340.415,134.852 255.989,208.449 147.064,113.479 186.618,40.851 304.553,40.851 "/>
<path style="fill:#972041;" d="M375.819,66.974c-11.177,0-22.103,1.078-32.67,3.148l-83.87,215.65l45.742,7.832
	c40.47-17.114,70.809-55.35,70.809-106.474C375.83,116.736,375.83,66.974,375.819,66.974z"/>
<path style="fill:#E43349;" d="M343.149,70.122c0,11.961,0,66.789,0,126.813c0,44.402-14.478,77.105-38.128,96.67L256,116.801
	l0.403-0.403C279.628,93.173,309.607,76.691,343.149,70.122z"/>
<path style="fill:#FF3B3B;" d="M305.021,235.825v57.78c-15.262,6.449-31.962,9.902-49.021,9.902
	c-62.301,0-119.83-45.971-119.83-116.377c0-70.395,0-120.157,0-120.157c46.875,0,89.251,19.042,119.83,49.827
	C286.306,147.314,305.021,189.364,305.021,235.825z"/>
<path style="fill:#7BFFCD;" d="M165.27,316.19c-34.317-19.612-76.382-16.333-112.486,4.723l64.471,82.319l101.045,12.274
	c-0.014-3.233-0.138-6.442-0.371-9.622C215.153,367.955,196.933,334.286,165.27,316.19z"/>
<path style="fill:#5DC09A;" d="M52.784,320.914l75.615,59.795l89.901,34.797c-36.105,21.055-78.169,24.335-112.486,4.723
	C71.496,400.618,52.969,362.71,52.784,320.914z"/>
<path style="fill:#6CDFB4;" d="M52.784,320.914c5.9,31.796,28.171,63.151,62.488,82.763c34.317,19.612,72.638,22.885,103.027,11.828
	L52.784,320.914z"/>
<path style="fill:#7BFFCD;" d="M346.73,316.19c34.317-19.612,76.382-16.333,112.486,4.723l-64.471,82.319l-101.045,12.274
	C293.886,373.71,312.413,335.802,346.73,316.19z"/>
<path style="fill:#5DC09A;" d="M459.216,320.914l-75.615,59.795l-89.901,34.797c36.105,21.055,78.169,24.335,112.486,4.723
	C440.504,400.618,459.031,362.71,459.216,320.914z"/>
<path style="fill:#6CDFB4;" d="M459.216,320.914c-5.9,31.796-28.171,63.151-62.488,82.763
	c-34.317,19.612-72.638,22.885-103.027,11.828L459.216,320.914z"/>
<path d="M463.332,313.856c-21.17-12.346-44.23-18.871-66.689-18.871c-19.424,0-37.582,4.749-53.968,14.113
	c-34.35,19.631-55.443,57.38-57.042,101.61l-21.463,12.267v-44.523h8.17c4.513,0,8.17-3.658,8.17-8.17c0-4.512-3.657-8.17-8.17-8.17
	h-8.17v-50.684c30.308-1.802,58.68-13.595,80.621-33.68c25.282-23.142,39.205-55.322,39.205-90.613l-0.002-119.59
	c-0.001-6.415-4.887-8.744-8.17-8.744c-10.16,0-20.188,0.857-30.004,2.521L332.534,36.94c-1.432-2.625-4.183-4.259-7.174-4.259
	h-15.485L294.386,4.26C292.954,1.634,290.202,0,287.211,0h-62.435c-2.991,0-5.744,1.635-7.176,4.263l-15.477,28.418h-15.509
	c-2.991,0-5.744,1.635-7.176,4.263L166.164,61.32c-9.813-1.662-19.836-2.519-29.992-2.519c-4.513,0-8.17,3.658-8.17,8.17v120.163
	c0,35.291,13.923,67.472,39.204,90.613c21.941,20.085,50.315,31.878,80.625,33.68v17.297h-8.172c-4.513,0-8.17,3.658-8.17,8.17
	s3.657,8.17,8.17,8.17h8.172v77.91l-21.463-12.268c-1.599-44.23-22.694-81.979-57.042-101.61
	c-16.386-9.364-34.544-14.113-53.968-14.113c-22.458,0-45.519,6.525-66.689,18.871c-2.521,1.471-4.067,4.174-4.055,7.094
	c0.205,46.275,21.568,86.04,57.145,106.372c16.384,9.363,34.54,14.112,53.967,14.113c21.002,0,42.523-5.707,62.536-16.54
	l29.569,16.901v20.477h-8.172c-4.513,0-8.17,3.658-8.17,8.17c0,4.512,3.657,8.17,8.17,8.17h8.172v25.218
	c0,4.512,3.657,8.17,8.17,8.17c4.513,0,8.17-3.658,8.17-8.17v-62.034l29.569-16.901c20.013,10.833,41.536,16.54,62.536,16.54
	c19.424,0,37.581-4.749,53.967-14.113c35.576-20.333,56.94-60.098,57.145-106.373C467.399,318.03,465.853,315.327,463.332,313.856z
	 M155.732,425.094c-16.552-0.001-31.981-4.025-45.865-11.959c-29.243-16.712-47.267-49.188-48.807-87.492
	c17.494-9.38,36.172-14.319,54.296-14.319c16.545,0,31.975,4.024,45.86,11.96c26.698,15.258,44.037,43.657,48.026,77.633
	l-117.72-67.29c-3.917-2.24-8.909-0.879-11.147,3.038c-2.239,3.917-0.879,8.909,3.039,11.147l117.721,67.29
	C186.282,421.662,170.817,425.095,155.732,425.094z M229.631,16.34h52.728l8.904,16.34h-70.532L229.631,16.34z M191.469,49.021
	h15.461c0.021,0,0.042,0,0.063,0h98.011c0.05,0,15.503,0,15.503,0l8.692,15.952c-27.108,7.341-52.13,21.087-73.202,40.489
	c-21.074-19.406-46.101-33.154-73.214-40.493L191.469,49.021z M144.341,187.135V75.347c84.816,4.271,152.511,74.617,152.511,160.474
	l-0.001,21.136c0,4.512,3.657,8.17,8.17,8.17c4.512,0,8.17-3.658,8.17-8.17l0.001-21.136c0-44.337-16.154-86.164-45.678-118.749
	c21.481-19.631,47.438-32.821,75.505-38.602c0.187-0.036,0.375-0.069,0.562-0.118c7.877-1.593,15.919-2.604,24.074-3.009
	c0.001,17.056,0.001,58.798,0.001,111.791c0,67.73-56.772,108.203-111.658,108.203C201.112,295.338,144.341,254.865,144.341,187.135
	z M402.133,413.135c-13.885,7.935-29.314,11.959-45.859,11.959c-15.087,0-30.556-3.434-45.407-9.991l117.72-67.29
	c3.918-2.239,5.278-7.23,3.039-11.147c-2.241-3.917-7.231-5.278-11.147-3.038l-117.72,67.29
	c3.988-33.976,21.328-62.376,48.026-77.633c13.885-7.936,29.315-11.96,45.86-11.96c18.124,0,36.802,4.938,54.296,14.319
	C449.4,363.948,431.375,396.423,402.133,413.135z"/>
</svg>